<svg width="12" height="12" viewBox="0 0 12 12" fill="none" xmlns="http://www.w3.org/2000/svg">
<path d="M3.54031 5.49997L5.57256 1C5.97679 1 6.36448 1.15803 6.65032 1.43934C6.93616 1.72064 7.09674 2.10217 7.09674 2.49999V4.49998H9.97237C10.1197 4.49834 10.2656 4.52823 10.3999 4.58759C10.5343 4.64694 10.654 4.73434 10.7506 4.84373C10.8473 4.95312 10.9186 5.08188 10.9597 5.2211C11.0008 5.36031 11.0106 5.50665 10.9885 5.64997L10.2874 10.1499C10.2506 10.3884 10.1275 10.6057 9.94082 10.7619C9.7541 10.9181 9.5163 11.0027 9.27125 10.9999H3.54031M3.54031 5.49997V10.9999M3.54031 5.49997H2.01612C1.74663 5.49997 1.48818 5.60533 1.29762 5.79286C1.10706 5.9804 1 6.23475 1 6.49996V9.99994C1 10.2652 1.10706 10.5195 1.29762 10.707C1.48818 10.8946 1.74663 10.9999 2.01612 10.9999H3.54031" stroke="#52525B" stroke-linecap="round" stroke-linejoin="round"/>
</svg>
