<svg width="190" height="85" viewBox="0 0 190 85" fill="none" xmlns="http://www.w3.org/2000/svg">
<path d="M34.75 30.25H4.65V22.5H43.4V50.65H34.75V30.25ZM45.65 54.95V62.7H2.45V54.95H9V40.1H17.5V54.95H21.95V40.1H30.45V54.95H45.65Z" fill="black"/>
<path d="M172.25 30.1H143.05V24H153.35V20.75H161.95V24H172.25V30.1ZM188.55 36.65H183.55V45.65H175.1V21.5H183.55V28.75H188.55V36.65ZM157.65 46.35C153.95 46.35 150.85 45.6833 148.35 44.35C145.883 43.0167 144.65 41.15 144.65 38.75C144.65 36.35 145.883 34.4833 148.35 33.15C150.85 31.8167 153.95 31.15 157.65 31.15C161.35 31.15 164.433 31.8167 166.9 33.15C169.367 34.4833 170.6 36.35 170.6 38.75C170.6 41.15 169.367 43.0167 166.9 44.35C164.433 45.6833 161.35 46.35 157.65 46.35ZM157.65 36.9C156.083 36.9 154.85 37.0667 153.95 37.4C153.05 37.7 152.6 38.15 152.6 38.75C152.6 39.35 153.05 39.8167 153.95 40.15C154.85 40.45 156.083 40.6 157.65 40.6C159.217 40.6 160.45 40.45 161.35 40.15C162.25 39.8167 162.7 39.35 162.7 38.75C162.7 38.15 162.25 37.7 161.35 37.4C160.45 37.0667 159.217 36.9 157.65 36.9ZM175.35 47.15H183.55V64.2H145.85V47.15H154.05V49.55H175.35V47.15ZM175.35 57.9V55.5H154.05V57.9H175.35Z" fill="black"/>
<ellipse cx="94" cy="43" rx="40" ry="39" fill="#60A5FA"/>
<path d="M94.5 77.9167C114.981 77.9167 131.583 62.0601 131.583 42.5C131.583 22.9399 114.981 7.08334 94.5 7.08334C74.0195 7.08334 57.4167 22.9399 57.4167 42.5C57.4167 62.0601 74.0195 77.9167 94.5 77.9167Z" stroke="white" stroke-opacity="0.5" stroke-linecap="round" stroke-linejoin="round"/>
<path d="M57.4167 42.5H131.583" stroke="white" stroke-opacity="0.5" stroke-linecap="round" stroke-linejoin="round"/>
<path d="M94.5 7.08334C103.776 16.7817 109.047 29.3676 109.333 42.5C109.047 55.6324 103.776 68.2183 94.5 77.9167C85.2244 68.2183 79.9531 55.6324 79.6667 42.5C79.9531 29.3676 85.2244 16.7817 94.5 7.08334Z" stroke="white" stroke-opacity="0.5" stroke-linecap="round" stroke-linejoin="round"/>
<path d="M62.95 57.5L83.2 30.7H63.95V22.8H95.55V28.8L75.3 55.6H96.55V63.5H62.95V57.5ZM104.57 39.525C105.353 39.525 106.003 39.7833 106.52 40.3C107.037 40.8167 107.295 41.4667 107.295 42.25C107.295 43.0333 107.037 43.6833 106.52 44.2C106.003 44.7167 105.353 44.975 104.57 44.975C103.787 44.975 103.137 44.7167 102.62 44.2C102.103 43.6833 101.845 43.0333 101.845 42.25C101.845 41.4667 102.103 40.8167 102.62 40.3C103.137 39.7833 103.787 39.525 104.57 39.525ZM106.795 61.3H102.345V46.6H106.795V61.3ZM111.633 46.6H116.083V48.1C117 46.8667 118.4 46.25 120.283 46.25C121.666 46.25 122.9 46.5833 123.983 47.25C125.066 47.9 125.908 48.8083 126.508 49.975C127.108 51.1417 127.408 52.4583 127.408 53.925C127.408 55.3917 127.108 56.7083 126.508 57.875C125.908 59.0417 125.066 59.95 123.983 60.6C122.9 61.2667 121.666 61.6 120.283 61.6C118.4 61.6 117 60.9833 116.083 59.75V67.35H111.633V46.6ZM119.583 57.8C120.633 57.8 121.475 57.4417 122.108 56.725C122.741 55.9917 123.058 55.0583 123.058 53.925C123.058 52.7917 122.741 51.8667 122.108 51.15C121.475 50.4167 120.633 50.05 119.583 50.05C118.5 50.05 117.633 50.4167 116.983 51.15C116.333 51.8667 116.008 52.7917 116.008 53.925C116.008 55.0583 116.333 55.9917 116.983 56.725C117.633 57.4417 118.5 57.8 119.583 57.8Z" fill="white"/>
</svg>
