<svg width="12" height="11" viewBox="0 0 12 11" fill="none" xmlns="http://www.w3.org/2000/svg">
<g id="trash-2">
<path id="Vector" d="M1.5 2.75H2.5H10.5" stroke="white" stroke-width="0.5" stroke-linecap="round" stroke-linejoin="round"/>
<path id="Vector_2" d="M9.5 2.75V9.16667C9.5 9.40978 9.39464 9.64294 9.20711 9.81485C9.01957 9.98676 8.76522 10.0833 8.5 10.0833H3.5C3.23478 10.0833 2.98043 9.98676 2.79289 9.81485C2.60536 9.64294 2.5 9.40978 2.5 9.16667V2.75M4 2.75V1.83333C4 1.59022 4.10536 1.35706 4.29289 1.18515C4.48043 1.01325 4.73478 0.916668 5 0.916668H7C7.26522 0.916668 7.51957 1.01325 7.70711 1.18515C7.89464 1.35706 8 1.59022 8 1.83333V2.75" stroke="white" stroke-width="0.5" stroke-linecap="round" stroke-linejoin="round"/>
<path id="Vector_3" d="M5 5.04167V7.79167" stroke="white" stroke-width="0.5" stroke-linecap="round" stroke-linejoin="round"/>
<path id="Vector_4" d="M7 5.04167V7.79167" stroke="white" stroke-width="0.5" stroke-linecap="round" stroke-linejoin="round"/>
</g>
</svg>
