<svg width="14" height="13" viewBox="0 0 14 13" fill="none" xmlns="http://www.w3.org/2000/svg">
<path d="M6.75992 11.9C8.88069 11.9 10.5999 10.2882 10.5999 8.29995C10.5999 6.31173 8.88069 4.69995 6.75992 4.69995C4.63915 4.69995 2.91992 6.31173 2.91992 8.29995C2.91992 10.2882 4.63915 11.9 6.75992 11.9Z" stroke="#27272A" stroke-width="0.5" stroke-linecap="round" stroke-linejoin="round"/>
<path d="M12.0401 10.1C12.3052 10.1 13.0001 9.89848 13.0001 9.64995C13.0001 9.40142 12.3052 9.19995 12.0401 9.19995C11.775 9.19995 11.5601 9.19995 11.5601 9.64995C11.5601 9.89848 11.775 10.1 12.0401 10.1Z" fill="#27272A" stroke="#27272A" stroke-width="0.5" stroke-linecap="round" stroke-linejoin="round"/>
<line x1="11.8101" y1="4.69995" x2="11.8101" y2="9.19995" stroke="#27272A" stroke-width="0.5"/>
<path d="M12.52 5.14998L6.76 1.09998L1 5.14998" fill="#27272A"/>
<path d="M12.52 5.14998L6.76 1.09998L1 5.14998" stroke="#27272A" stroke-width="0.5" stroke-linecap="round" stroke-linejoin="round"/>
<path d="M1.00002 5.14995L6.76002 9.19995L12.52 5.14995" fill="#27272A"/>
<path d="M1.00002 5.14995L6.76002 9.19995L12.52 5.14995" stroke="#27272A" stroke-width="0.5" stroke-linecap="round" stroke-linejoin="round"/>
</svg>
